<svg height="512pt" viewBox="0 0 512 512" width="512pt" xmlns="http://www.w3.org/2000/svg"><path d="m512 256c0 141.386719-114.613281 256-256 256s-256-114.613281-256-256 114.613281-256 256-256 256 114.613281 256 256zm0 0" fill="#dd3d88"/><path d="m457.230469 256c0 50.414062-18.546875 96.515625-49.195313 131.824219-6.238281 7.207031-12.996094 13.96875-20.207031 20.21875-35.316406 30.644531-81.398437 49.191406-131.824219 49.191406-111.148437 0-201.238281-90.101563-201.238281-201.234375 0-50.429688 18.535156-96.519531 49.183594-131.824219 6.257812-7.210937 13.019531-13.972656 20.230469-20.210937 35.304687-30.65625 81.40625-49.191406 131.824218-49.191406 111.132813 0 201.226563 90.089843 201.226563 201.226562zm0 0" fill="#e6e6e6"/><path d="m323.832031 135.476562c0 26.820313-17.136719 49.632813-41.054687 58.097657-6.433594 2.277343-13.351563 3.519531-20.5625 3.519531-34.023438 0-61.605469-27.585938-61.605469-61.617188s27.582031-61.617187 61.605469-61.617187c5.609375 0 11.042968.75 16.207031 2.164063 26.175781 7.101562 45.410156 31.03125 45.410156 59.453124zm0 0" fill="#f98c3c"/><path d="m323.832031 135.476562c0 26.820313-17.136719 49.632813-41.054687 58.097657-26.164063-7.105469-45.410156-31.046875-45.410156-59.457031 0-26.820313 17.136718-49.640626 41.054687-58.09375 26.175781 7.101562 45.410156 31.03125 45.410156 59.453124zm0 0" fill="#fbcd58"/><path d="m227.152344 187.21875c0 26.824219-17.136719 49.632812-41.054688 58.097656-6.433594 2.277344-13.351562 3.523438-20.5625 3.523438-34.019531 0-61.605468-27.585938-61.605468-61.621094 0-34.03125 27.585937-61.617188 61.605468-61.617188 5.613282 0 11.046875.753907 16.207032 2.164063 26.175781 7.105469 45.410156 31.035156 45.410156 59.453125zm0 0" fill="#f98c3c"/><path d="m227.152344 187.21875c0 26.824219-17.136719 49.632812-41.054688 58.097656-26.164062-7.105468-45.410156-31.042968-45.410156-59.453125 0-26.824219 17.136719-49.644531 41.054688-58.097656 26.175781 7.105469 45.410156 31.035156 45.410156 59.453125zm0 0" fill="#fbcd58"/><path d="m217.625 268.984375c0 34.027344-27.585938 61.613281-61.617188 61.613281-34.027343 0-61.613281-27.585937-61.613281-61.613281 0-34.03125 27.585938-61.617187 61.613281-61.617187 34.03125 0 61.617188 27.585937 61.617188 61.617187zm0 0" fill="#f98c3c"/><path d="m306.132812 213.152344c0 26.824218-17.136718 49.632812-41.054687 58.097656-6.4375 2.277344-13.355469 3.523438-20.566406 3.523438-34.019531 0-61.605469-27.585938-61.605469-61.621094 0-34.03125 27.585938-61.617188 61.605469-61.617188 5.613281 0 11.046875.753906 16.207031 2.164063 26.175781 7.105469 45.414062 31.035156 45.414062 59.453125zm0 0" fill="#f98c3c"/><path d="m306.132812 213.152344c0 26.824218-17.136718 49.632812-41.054687 58.097656-26.164063-7.105469-45.414063-31.042969-45.414063-59.453125 0-26.824219 17.136719-49.644531 41.054688-58.097656 26.175781 7.105469 45.414062 31.035156 45.414062 59.453125zm0 0" fill="#fbcd58"/><path d="m410.980469 240.324219c0 26.824219-17.136719 49.632812-41.054688 58.097656-6.4375 2.277344-13.355469 3.519531-20.5625 3.519531-34.023437 0-61.609375-27.582031-61.609375-61.617187 0-34.03125 27.585938-61.617188 61.609375-61.617188 5.609375 0 11.042969.753907 16.203125 2.164063 26.175782 7.105468 45.414063 31.03125 45.414063 59.453125zm0 0" fill="#f98c3c"/><path d="m410.980469 240.324219c0 26.824219-17.136719 49.632812-41.054688 58.097656-26.164062-7.105469-45.410156-31.042969-45.410156-59.453125 0-26.824219 17.132813-49.644531 41.050781-58.097656 26.175782 7.105468 45.414063 31.03125 45.414063 59.453125zm0 0" fill="#fbcd58"/><path d="m217.625 268.984375c0 26.820313-17.136719 49.632813-41.054688 58.097656-26.164062-7.105469-45.410156-31.046875-45.410156-59.457031 0-26.820312 17.136719-49.640625 41.050782-58.097656 26.175781 7.105468 45.414062 31.035156 45.414062 59.457031zm0 0" fill="#fbcd58"/><path d="m312.941406 300.300781c0 26.824219-17.136718 49.632813-41.054687 58.097657-6.4375 2.277343-13.355469 3.519531-20.566407 3.519531-34.019531 0-61.605468-27.585938-61.605468-61.617188s27.585937-61.617187 61.605468-61.617187c5.613282 0 11.046876.753906 16.207032 2.164062 26.175781 7.105469 45.414062 31.03125 45.414062 59.453125zm0 0" fill="#f98c3c"/><path d="m312.941406 300.300781c0 26.824219-17.136718 49.632813-41.054687 58.097657-26.164063-7.105469-45.414063-31.042969-45.414063-59.457032 0-26.820312 17.136719-49.640625 41.054688-58.09375 26.175781 7.105469 45.414062 31.03125 45.414062 59.453125zm0 0" fill="#fbcd58"/><path d="m407.238281 316.640625c0 26.820313-17.136719 49.632813-41.054687 58.09375-6.4375 2.28125-13.355469 3.523437-20.566406 3.523437-34.019532 0-61.605469-27.585937-61.605469-61.617187 0-34.035156 27.585937-61.617187 61.605469-61.617187 5.613281 0 11.046874.75 16.207031 2.160156 26.175781 7.105468 45.414062 31.035156 45.414062 59.457031zm0 0" fill="#f98c3c"/><path d="m407.238281 316.640625c0 26.820313-17.136719 49.632813-41.054687 58.09375-26.164063-7.105469-45.414063-31.042969-45.414063-59.453125 0-26.824219 17.136719-49.644531 41.054688-58.097656 26.175781 7.105468 45.414062 31.035156 45.414062 59.457031zm0 0" fill="#fbcd58"/><path d="m243.835938 341.148438c0 26.824218-17.136719 49.632812-41.054688 58.097656-6.4375 2.277344-13.355469 3.519531-20.5625 3.519531-34.023438 0-61.609375-27.585937-61.609375-61.617187s27.585937-61.617188 61.609375-61.617188c5.609375 0 11.042969.753906 16.207031 2.164062 26.171875 7.105469 45.410157 31.03125 45.410157 59.453126zm0 0" fill="#f98c3c"/><path d="m243.835938 341.148438c0 26.824218-17.136719 49.632812-41.054688 58.097656-26.164062-7.105469-45.410156-31.046875-45.410156-59.457032 0-26.820312 17.136718-49.640624 41.054687-58.09375 26.171875 7.105469 45.410157 31.03125 45.410157 59.453126zm0 0" fill="#fbcd58"/><path d="m339.152344 362.9375c0 26.820312-17.136719 49.632812-41.054688 58.09375-6.433594 2.277344-13.351562 3.523438-20.5625 3.523438-34.023437 0-61.605468-27.585938-61.605468-61.617188 0-34.035156 27.582031-61.621094 61.605468-61.621094 5.609375 0 11.042969.753906 16.207032 2.164063 26.175781 7.105469 45.410156 31.035156 45.410156 59.457031zm0 0" fill="#f98c3c"/><path d="m339.152344 362.9375c0 26.820312-17.136719 49.632812-41.054688 58.09375-26.164062-7.105469-45.410156-31.042969-45.410156-59.453125 0-26.824219 17.136719-49.644531 41.054688-58.097656 26.175781 7.105469 45.410156 31.035156 45.410156 59.457031zm0 0" fill="#fbcd58"/><path d="m392.480469 70.410156 49.105469 49.105469-322.070313 322.066406-49.105469-49.101562zm0 0" fill="#dd3d88"/></svg>